<svg xmlns="http://www.w3.org/2000/svg" viewBox="0 0 100 100" width="100" height="100" role="img" aria-label="UVL Technology logo">
  <defs>
    <linearGradient id="logoGrad" x1="0%" y1="0%" x2="100%" y2="100%">
      <stop offset="0%" stop-color="#a78bfa"/>
      <stop offset="100%" stop-color="#7c3aed"/>
    </linearGradient>
  </defs>
  <!-- Stylized globe/sphere at top -->
  <g transform="translate(50, 28)">
    <circle cx="0" cy="0" r="18" fill="#1a1625" stroke="#e0e0e0" stroke-width="0.5"/>
    <g fill="none" stroke="#ffffff" stroke-width="1.2" stroke-linecap="round" opacity="0.9">
      <path d="M-12,-4 Q0,-18 12,-4"/>
      <path d="M-12,4 Q0,-10 12,4"/>
      <path d="M-8,-14 Q0,-6 8,-14"/>
      <path d="M-8,14 Q0,6 8,14"/>
      <path d="M-16,0 Q-10,-5 -16,-10"/>
      <path d="M16,0 Q10,5 16,10"/>
    </g>
  </g>
  <!-- Chevron petals -->
  <g transform="translate(50, 52)">
    <polygon points="0,-8 22,32 -22,32" fill="#ffffff"/>
    <polygon points="-18,-8 0,-8 -22,32" fill="#f0f0f0"/>
    <polygon points="18,-8 0,-8 22,32" fill="#f0f0f0"/>
    <polygon points="-30,8 -18,-8 -22,32" fill="#e8e8e8"/>
    <polygon points="30,8 18,-8 22,32" fill="#e8e8e8"/>
  </g>
</svg>